<svg xmlns="http://www.w3.org/2000/svg" xmlns:xlink="http://www.w3.org/1999/xlink" width="500" zoomAndPan="magnify" viewBox="0 0 375 374.999991" height="500" preserveAspectRatio="xMidYMid meet" version="1.0"><path fill="#000000" d="M 367.71875 158.902344 L 198.800781 6.875 C 198.03125 6.183594 197.207031 5.566406 196.324219 5.027344 C 195.441406 4.484375 194.519531 4.03125 193.550781 3.660156 C 192.585938 3.289062 191.59375 3.007812 190.578125 2.820312 C 189.558594 2.632812 188.535156 2.539062 187.5 2.539062 C 186.464844 2.539062 185.441406 2.632812 184.421875 2.820312 C 183.40625 3.007812 182.414062 3.289062 181.449219 3.660156 C 180.480469 4.03125 179.558594 4.484375 178.675781 5.027344 C 177.792969 5.566406 176.96875 6.183594 176.199219 6.875 L 7.28125 158.902344 C 6.882812 159.277344 6.503906 159.667969 6.140625 160.078125 C 5.78125 160.488281 5.441406 160.914062 5.121094 161.359375 C 4.800781 161.800781 4.503906 162.257812 4.230469 162.730469 C 3.957031 163.203125 3.703125 163.6875 3.476562 164.183594 C 3.25 164.679688 3.046875 165.1875 2.867188 165.703125 C 2.6875 166.21875 2.535156 166.742188 2.40625 167.273438 C 2.277344 167.804688 2.175781 168.339844 2.101562 168.882812 C 2.023438 169.421875 1.976562 169.964844 1.953125 170.511719 C 1.929688 171.058594 1.933594 171.601562 1.960938 172.148438 C 1.992188 172.695312 2.046875 173.238281 2.128906 173.777344 C 2.210938 174.316406 2.320312 174.851562 2.457031 175.382812 C 2.589844 175.910156 2.75 176.433594 2.933594 176.945312 C 3.117188 177.460938 3.328125 177.964844 3.5625 178.457031 C 3.796875 178.953125 4.054688 179.433594 4.332031 179.902344 C 4.613281 180.371094 4.917969 180.824219 5.242188 181.265625 C 5.566406 181.703125 5.910156 182.125 6.277344 182.53125 C 6.640625 182.9375 7.027344 183.324219 7.429688 183.695312 C 7.832031 184.0625 8.25 184.410156 8.6875 184.738281 C 9.125 185.066406 9.578125 185.375 10.042969 185.65625 C 10.511719 185.941406 10.988281 186.203125 11.480469 186.441406 C 11.972656 186.675781 12.476562 186.890625 12.988281 187.078125 C 13.5 187.269531 14.019531 187.433594 14.550781 187.570312 C 15.078125 187.707031 15.613281 187.820312 16.152344 187.90625 C 16.691406 187.996094 17.234375 188.054688 17.777344 188.089844 C 18.324219 188.121094 18.871094 188.128906 19.414062 188.109375 C 19.960938 188.09375 20.503906 188.046875 21.046875 187.976562 C 21.585938 187.902344 22.125 187.804688 22.65625 187.683594 C 23.1875 187.558594 23.714844 187.410156 24.230469 187.234375 C 24.75 187.058594 25.257812 186.859375 25.753906 186.636719 C 26.253906 186.414062 26.738281 186.164062 27.214844 185.894531 C 27.6875 185.621094 28.148438 185.328125 28.59375 185.011719 C 29.039062 184.699219 29.46875 184.359375 29.882812 184.003906 L 187.5 42.144531 L 345.117188 184.039062 C 345.53125 184.394531 345.960938 184.730469 346.40625 185.046875 C 346.851562 185.363281 347.3125 185.65625 347.785156 185.925781 C 348.261719 186.199219 348.746094 186.445312 349.246094 186.671875 C 349.742188 186.894531 350.25 187.09375 350.769531 187.269531 C 351.285156 187.441406 351.8125 187.59375 352.34375 187.714844 C 352.875 187.839844 353.410156 187.9375 353.953125 188.007812 C 354.496094 188.082031 355.039062 188.125 355.585938 188.144531 C 356.128906 188.164062 356.675781 188.15625 357.222656 188.121094 C 357.765625 188.089844 358.308594 188.027344 358.847656 187.941406 C 359.386719 187.855469 359.921875 187.742188 360.449219 187.605469 C 360.976562 187.464844 361.5 187.300781 362.011719 187.113281 C 362.523438 186.925781 363.027344 186.710938 363.519531 186.472656 C 364.011719 186.234375 364.488281 185.976562 364.957031 185.691406 C 365.421875 185.40625 365.875 185.101562 366.3125 184.773438 C 366.746094 184.445312 367.167969 184.097656 367.570312 183.726562 C 367.972656 183.359375 368.359375 182.972656 368.722656 182.566406 C 369.089844 182.160156 369.433594 181.738281 369.757812 181.296875 C 370.082031 180.859375 370.386719 180.40625 370.667969 179.9375 C 370.945312 179.46875 371.203125 178.984375 371.4375 178.492188 C 371.671875 178 371.882812 177.496094 372.066406 176.980469 C 372.25 176.464844 372.410156 175.945312 372.542969 175.414062 C 372.679688 174.886719 372.789062 174.351562 372.871094 173.8125 C 372.953125 173.269531 373.007812 172.726562 373.039062 172.183594 C 373.066406 171.636719 373.070312 171.089844 373.046875 170.546875 C 373.023438 170 372.976562 169.457031 372.898438 168.914062 C 372.824219 168.375 372.722656 167.839844 372.59375 167.308594 C 372.464844 166.777344 372.3125 166.253906 372.132812 165.738281 C 371.953125 165.21875 371.75 164.714844 371.523438 164.21875 C 371.296875 163.722656 371.042969 163.238281 370.769531 162.765625 C 370.496094 162.292969 370.199219 161.835938 369.878906 161.390625 C 369.558594 160.949219 369.21875 160.523438 368.859375 160.113281 C 368.496094 159.699219 368.117188 159.308594 367.71875 158.9375 Z M 367.71875 158.902344 " fill-opacity="1" fill-rule="nonzero"/><path fill="#000000" d="M 322.636719 205.238281 C 322.082031 205.238281 321.53125 205.261719 320.980469 205.316406 C 320.429688 205.371094 319.882812 205.453125 319.339844 205.5625 C 318.796875 205.667969 318.261719 205.804688 317.730469 205.964844 C 317.203125 206.125 316.683594 206.3125 316.171875 206.523438 C 315.660156 206.734375 315.160156 206.96875 314.671875 207.230469 C 314.183594 207.492188 313.710938 207.777344 313.25 208.082031 C 312.789062 208.390625 312.347656 208.71875 311.917969 209.070312 C 311.492188 209.421875 311.082031 209.792969 310.691406 210.183594 C 310.300781 210.574219 309.929688 210.984375 309.578125 211.414062 C 309.226562 211.839844 308.898438 212.285156 308.589844 212.742188 C 308.28125 213.203125 308 213.675781 307.738281 214.164062 C 307.476562 214.652344 307.242188 215.152344 307.027344 215.664062 C 306.816406 216.175781 306.632812 216.695312 306.46875 217.226562 C 306.308594 217.753906 306.175781 218.289062 306.066406 218.832031 C 305.960938 219.375 305.878906 219.921875 305.824219 220.472656 C 305.769531 221.023438 305.742188 221.574219 305.742188 222.128906 L 305.742188 319.664062 C 305.742188 320.339844 305.707031 321.015625 305.640625 321.691406 C 305.574219 322.367188 305.476562 323.035156 305.34375 323.699219 C 305.210938 324.367188 305.042969 325.023438 304.847656 325.671875 C 304.652344 326.320312 304.421875 326.957031 304.164062 327.585938 C 303.902344 328.210938 303.613281 328.824219 303.292969 329.421875 C 302.972656 330.019531 302.625 330.601562 302.246094 331.164062 C 301.871094 331.726562 301.46875 332.269531 301.039062 332.796875 C 300.605469 333.320312 300.152344 333.820312 299.671875 334.300781 C 299.191406 334.78125 298.691406 335.234375 298.167969 335.664062 C 297.644531 336.097656 297.097656 336.5 296.535156 336.875 C 295.972656 337.253906 295.390625 337.601562 294.792969 337.921875 C 294.195312 338.242188 293.582031 338.53125 292.957031 338.789062 C 292.328125 339.050781 291.691406 339.277344 291.042969 339.476562 C 290.394531 339.671875 289.738281 339.839844 289.074219 339.972656 C 288.40625 340.105469 287.738281 340.203125 287.0625 340.269531 C 286.386719 340.335938 285.710938 340.371094 285.035156 340.371094 L 89.964844 340.371094 C 89.289062 340.371094 88.613281 340.335938 87.9375 340.269531 C 87.261719 340.203125 86.59375 340.105469 85.925781 339.972656 C 85.261719 339.839844 84.605469 339.671875 83.957031 339.476562 C 83.308594 339.277344 82.671875 339.050781 82.042969 338.789062 C 81.417969 338.53125 80.804688 338.242188 80.207031 337.921875 C 79.609375 337.601562 79.027344 337.253906 78.464844 336.875 C 77.902344 336.5 77.355469 336.097656 76.832031 335.664062 C 76.308594 335.234375 75.808594 334.78125 75.328125 334.300781 C 74.847656 333.820312 74.394531 333.320312 73.960938 332.796875 C 73.53125 332.269531 73.128906 331.726562 72.753906 331.164062 C 72.375 330.601562 72.027344 330.019531 71.707031 329.421875 C 71.386719 328.824219 71.097656 328.210938 70.835938 327.585938 C 70.578125 326.957031 70.347656 326.320312 70.152344 325.671875 C 69.957031 325.023438 69.789062 324.367188 69.65625 323.703125 C 69.523438 323.035156 69.425781 322.367188 69.359375 321.691406 C 69.292969 321.015625 69.257812 320.339844 69.257812 319.664062 L 69.257812 222.128906 C 69.257812 221.574219 69.230469 221.023438 69.175781 220.472656 C 69.121094 219.921875 69.039062 219.375 68.933594 218.832031 C 68.824219 218.289062 68.691406 217.753906 68.53125 217.226562 C 68.367188 216.695312 68.183594 216.175781 67.972656 215.664062 C 67.757812 215.152344 67.523438 214.652344 67.261719 214.164062 C 67 213.675781 66.71875 213.203125 66.410156 212.742188 C 66.101562 212.285156 65.773438 211.839844 65.421875 211.414062 C 65.070312 210.984375 64.699219 210.574219 64.308594 210.183594 C 63.917969 209.792969 63.507812 209.421875 63.082031 209.070312 C 62.652344 208.71875 62.210938 208.390625 61.75 208.082031 C 61.289062 207.777344 60.816406 207.492188 60.328125 207.230469 C 59.839844 206.96875 59.339844 206.734375 58.828125 206.523438 C 58.316406 206.3125 57.796875 206.125 57.269531 205.964844 C 56.738281 205.804688 56.203125 205.667969 55.660156 205.5625 C 55.117188 205.453125 54.570312 205.371094 54.019531 205.316406 C 53.46875 205.261719 52.917969 205.238281 52.363281 205.238281 C 51.8125 205.238281 51.257812 205.261719 50.710938 205.316406 C 50.160156 205.371094 49.613281 205.453125 49.070312 205.5625 C 48.527344 205.667969 47.992188 205.804688 47.460938 205.964844 C 46.933594 206.125 46.410156 206.3125 45.902344 206.523438 C 45.390625 206.734375 44.890625 206.96875 44.402344 207.230469 C 43.914062 207.492188 43.441406 207.777344 42.980469 208.082031 C 42.519531 208.390625 42.078125 208.71875 41.648438 209.070312 C 41.222656 209.421875 40.8125 209.792969 40.421875 210.183594 C 40.03125 210.574219 39.660156 210.984375 39.308594 211.414062 C 38.957031 211.839844 38.628906 212.285156 38.320312 212.742188 C 38.011719 213.203125 37.726562 213.675781 37.46875 214.164062 C 37.207031 214.652344 36.96875 215.152344 36.757812 215.664062 C 36.546875 216.175781 36.359375 216.695312 36.199219 217.226562 C 36.039062 217.753906 35.90625 218.289062 35.796875 218.832031 C 35.691406 219.375 35.609375 219.921875 35.554688 220.472656 C 35.5 221.023438 35.472656 221.574219 35.472656 222.128906 L 35.472656 319.664062 C 35.476562 321.445312 35.5625 323.226562 35.738281 325 C 35.917969 326.777344 36.179688 328.539062 36.527344 330.289062 C 36.878906 332.039062 37.3125 333.769531 37.832031 335.476562 C 38.351562 337.183594 38.949219 338.859375 39.632812 340.507812 C 40.316406 342.15625 41.082031 343.765625 41.921875 345.339844 C 42.765625 346.914062 43.679688 348.441406 44.671875 349.925781 C 45.664062 351.410156 46.726562 352.839844 47.859375 354.21875 C 48.988281 355.597656 50.1875 356.917969 51.449219 358.179688 C 52.710938 359.441406 54.03125 360.636719 55.410156 361.769531 C 56.789062 362.902344 58.21875 363.964844 59.703125 364.957031 C 61.1875 365.949219 62.714844 366.863281 64.289062 367.707031 C 65.863281 368.546875 67.472656 369.308594 69.121094 369.992188 C 70.769531 370.675781 72.445312 371.277344 74.152344 371.796875 C 75.859375 372.316406 77.589844 372.75 79.339844 373.101562 C 81.089844 373.449219 82.851562 373.710938 84.625 373.886719 C 86.402344 374.066406 88.183594 374.152344 89.964844 374.15625 L 285.035156 374.15625 C 286.816406 374.152344 288.597656 374.066406 290.375 373.886719 C 292.148438 373.710938 293.910156 373.449219 295.660156 373.101562 C 297.410156 372.75 299.140625 372.316406 300.847656 371.796875 C 302.554688 371.277344 304.230469 370.675781 305.878906 369.992188 C 307.527344 369.308594 309.136719 368.546875 310.710938 367.707031 C 312.285156 366.863281 313.8125 365.949219 315.296875 364.957031 C 316.78125 363.964844 318.210938 362.902344 319.589844 361.769531 C 320.96875 360.636719 322.289062 359.441406 323.550781 358.179688 C 324.8125 356.917969 326.011719 355.597656 327.140625 354.21875 C 328.273438 352.839844 329.335938 351.410156 330.328125 349.925781 C 331.320312 348.441406 332.234375 346.914062 333.078125 345.339844 C 333.917969 343.765625 334.683594 342.15625 335.367188 340.507812 C 336.050781 338.859375 336.648438 337.183594 337.167969 335.476562 C 337.6875 333.769531 338.121094 332.039062 338.472656 330.289062 C 338.820312 328.539062 339.082031 326.777344 339.261719 325 C 339.4375 323.226562 339.523438 321.445312 339.527344 319.664062 L 339.527344 222.128906 C 339.527344 221.574219 339.5 221.023438 339.445312 220.472656 C 339.390625 219.921875 339.308594 219.375 339.203125 218.832031 C 339.09375 218.289062 338.960938 217.753906 338.800781 217.226562 C 338.640625 216.695312 338.453125 216.175781 338.242188 215.664062 C 338.03125 215.152344 337.792969 214.652344 337.53125 214.164062 C 337.273438 213.675781 336.988281 213.203125 336.679688 212.742188 C 336.371094 212.285156 336.042969 211.839844 335.691406 211.414062 C 335.339844 210.984375 334.96875 210.574219 334.578125 210.183594 C 334.1875 209.792969 333.777344 209.421875 333.351562 209.070312 C 332.921875 208.71875 332.480469 208.390625 332.019531 208.082031 C 331.558594 207.777344 331.085938 207.492188 330.597656 207.230469 C 330.109375 206.96875 329.609375 206.734375 329.097656 206.523438 C 328.589844 206.3125 328.066406 206.125 327.539062 205.964844 C 327.007812 205.804688 326.472656 205.667969 325.929688 205.5625 C 325.386719 205.453125 324.839844 205.371094 324.289062 205.316406 C 323.742188 205.261719 323.1875 205.238281 322.636719 205.238281 Z M 322.636719 205.238281 " fill-opacity="1" fill-rule="nonzero"/></svg>